<svg viewBox="0 0 251 88" xmlns="http://www.w3.org/2000/svg" aria-labelledby="title"><title id="title" lang="en">Couple online speed dating</title>
                    <g fill="none" fill-rule="evenodd">
                        <path d="M146.29 18.735v8.144c4.34-5.459 9.83-8.144 16.384-8.144 6.82 0 12.399 2.417 16.915 7.338 4.517 4.922 6.82 10.918 6.82 17.988s-2.303 12.976-6.82 17.898c-4.516 4.922-10.184 7.338-17.003 7.338-6.643 0-12.133-2.595-16.296-7.875v12.774c0 9.412-5.984 13.804-9.587 13.804h-.154V32.54c0-9.412 5.983-13.805 9.587-13.805h.154zM16.431 70.4a27.886 27.886 0 0 0 8.653 1.367c2.201 0 4.343-.255 6.398-.737a134.2 134.2 0 0 0 7.162 4.984 39.384 39.384 0 0 0 15.749 6.734 146.391 146.391 0 0 1-4.34 2.767c-4.17 2.556-9.094 2.556-13.265 0-7.24-4.435-14.05-9.5-20.357-15.115zm8.942-51.665a25.754 25.754 0 0 1 5.673.634 25.029 25.029 0 0 1 2.832.82 25.372 25.372 0 0 1 8.05 4.664l-.054.079c-4.742 7.046-9.75 3.17-16.027 2.99a16.322 16.322 0 0 0-3.509.276 16.173 16.173 0 0 0-7.465 3.564 16.242 16.242 0 0 0-2.616 2.815A16 16 0 0 0 9.174 44a16.001 16.001 0 0 0 3.084 9.423 16.272 16.272 0 0 0 2.615 2.815 16.168 16.168 0 0 0 10.5 3.847c.159 0 .317-.002.474-.007 6.277-.179 11.285-4.055 16.027 2.99l.054.08a25.38 25.38 0 0 1-10.882 5.484 25.344 25.344 0 0 1-5.673.633 25.337 25.337 0 0 1-16.232-5.846 25.447 25.447 0 0 1-4.464-4.8A25.072 25.072 0 0 1 0 44l.005-.526A25.065 25.065 0 0 1 4.677 29.38a25.447 25.447 0 0 1 4.464-4.799 25.337 25.337 0 0 1 16.232-5.846zm202.038 0c6.88 0 12.599 2.15 16.977 6.54 4.377 4.39 6.612 10.303 6.612 17.829 0 1.344-.09 2.957-.358 4.748h-37.617c1.43 7.526 6.701 12.633 15.994 12.633 3.149 0 6.686-.688 9.938-1.874 4.004-1.459 8.386.159 10.489 3.873l.034.061c-4.914 3.674-12.687 6.72-20.818 6.72-18.05 0-25.822-12.633-25.822-25.354 0-7.258 2.233-13.26 6.79-18.009 4.557-4.748 10.544-7.167 17.78-7.167zm-136.602 0c3.615 0 9.617 4.39 9.617 13.796v15.717c0 7.244 4.175 11.894 11.193 11.894 7.017 0 11.192-4.65 11.192-11.894V32.53c0-9.406 6.003-13.796 9.617-13.796h.154v29.602c0 12.878-8.172 20.928-20.963 20.928-12.792 0-20.964-8.05-20.964-20.928V18.735zM199.44 0v55.461c0 9.411-5.917 13.804-9.48 13.804h-.152v-55.46c0-9.413 5.917-13.805 9.48-13.805h.152zm-38.183 27.774c-4.516 0-8.236 1.61-11.07 4.743-2.746 3.132-4.162 6.89-4.162 11.455 0 4.563 1.416 8.5 4.162 11.633 2.834 3.132 6.554 4.653 11.07 4.653 4.517 0 8.237-1.52 11.07-4.653 2.835-3.132 4.251-7.07 4.251-11.633 0-4.565-1.416-8.323-4.25-11.455-2.834-3.132-6.554-4.743-11.07-4.743zm66.154-.528c-7.416 0-12.956 5.017-14.386 12.543h28.057c-.804-7.615-6.434-12.543-13.671-12.543z" fill="#26C1E3"></path>
                        <path d="M35.136 69.985c4.86-2.916 10.327-3.21 15.464-.833a27.245 27.245 0 0 0 11.485 2.522c3.053 0 5.991-.501 8.739-1.427A143.34 143.34 0 0 1 58.01 80.619a36.093 36.093 0 0 1-13.147-4.118 129.563 129.563 0 0 1-9.734-6.512l.007-.004zm26.906-51.25c13.924 0 25.213 11.311 25.213 25.265a25.188 25.188 0 0 1-4.915 14.99 25.382 25.382 0 0 1-3.814 4.127 25.082 25.082 0 0 1-16.484 6.148c-4.16 0-8.082-1.01-11.54-2.797a118.727 118.727 0 0 1-3.437-2.142 25.422 25.422 0 0 1-3.378-3.005 25.273 25.273 0 0 1-5.148-8.157A25.245 25.245 0 0 1 36.829 44c0-3.232.605-6.323 1.71-9.164a25.275 25.275 0 0 1 7.053-9.983 25.085 25.085 0 0 1 16.45-6.118zm0 9.09a16.029 16.029 0 0 0-11.326 4.669 16.222 16.222 0 0 0-1.945 2.33 16.076 16.076 0 0 0-2.826 9.131c0 3.418 1.06 6.587 2.87 9.196a16.22 16.22 0 0 0 1.957 2.321 16.028 16.028 0 0 0 11.27 4.613c8.89 0 16.097-7.221 16.097-16.13 0-8.908-7.207-16.13-16.097-16.13z" fill="#E63E29"></path>
                    </g>
                </svg>